<svg xmlns="http://www.w3.org/2000/svg" width="512" height="512" viewBox="0 0 512 512">
  <rect width="512" height="512" fill="#0f172a"/>
  <!-- same artwork, centered and scaled into the maskable safe zone -->
  <g transform="translate(256 256) scale(0.8) translate(-258 -224)">
    <g stroke="#334155" stroke-width="7" stroke-linecap="round">
      <line x1="60" y1="150" x2="452" y2="150"/>
      <line x1="60" y1="204" x2="452" y2="204"/>
      <line x1="60" y1="258" x2="452" y2="258"/>
      <line x1="60" y1="312" x2="452" y2="312"/>
      <line x1="60" y1="366" x2="452" y2="366"/>
    </g>
    <g fill="#38bdf8">
      <rect x="170" y="160" width="14" height="173" rx="7"/>
      <rect x="270" y="140" width="14" height="85" rx="7"/>
      <polygon points="170,158 284,138 284,164 170,184"/>
      <ellipse cx="150" cy="339" rx="34" ry="26" transform="rotate(-18 150 339)"/>
      <ellipse cx="250" cy="231" rx="34" ry="26" transform="rotate(-18 250 231)"/>
    </g>
    <circle cx="370" cy="176" r="90" fill="#facc15"/>
    <g transform="translate(315 121)" fill="#0f172a">
      <path d="M28 20 H72 L69 35 C66 51 59 58 50 58 C41 58 34 51 31 35 Z"/>
      <path d="M30 23 C13 23 13 45 33 47" fill="none" stroke="#0f172a" stroke-width="6" stroke-linecap="round"/>
      <path d="M70 23 C87 23 87 45 67 47" fill="none" stroke="#0f172a" stroke-width="6" stroke-linecap="round"/>
      <rect x="46" y="57" width="8" height="11"/>
      <path d="M39 68 H61 L65 79 H35 Z"/>
      <rect x="31" y="79" width="38" height="7" rx="2"/>
    </g>
  </g>
</svg>
